<?xml version="1.0" encoding="utf-8"?><svg viewBox="0 0 1123 63" xmlns="http://www.w3.org/2000/svg" xmlns:xlink="http://www.w3.org/1999/xlink"><style>:root>svg{display:none}:root>svg:target{display:block}</style><svg fill="none" viewBox="0 0 10 17" id="facebook_burger" xmlns="http://www.w3.org/2000/svg"><path d="M5.87 17V9.256h2.674l.4-3.03H5.87V4.294c0-.876.25-1.472 1.535-1.472h1.63V.119A22.44 22.44 0 006.646 0C4.282 0 2.664 1.408 2.664 3.995v2.23H0v3.031h2.664V17H5.87z" fill="#000"/></svg><svg viewBox="0 0 256 256" id="facebook_footer" xmlns="http://www.w3.org/2000/svg"><path d="M154.667 16c-29.456 0-53.334 23.877-53.334 53.333V96h-32v42.667h32V240H144V138.667h37.333L186.667 96H144V74.667c0-11.782 9.552-21.334 21.333-21.334h21.334V17.717c-10.182-1.05-21.755-1.738-32-1.717z" fill="#305ea6" stroke-miterlimit="10" font-family="none" font-weight="none" font-size="none" text-anchor="none"/></svg><svg fill="none" viewBox="0 0 17 17" id="instagram_burger" xmlns="http://www.w3.org/2000/svg"><path fill-rule="evenodd" clip-rule="evenodd" d="M16.583 14.615c.142-.365.31-.914.357-1.925.05-1.094.06-1.421.06-4.19 0-2.768-.01-3.096-.06-4.19-.047-1.01-.215-1.56-.358-1.925a3.21 3.21 0 00-.775-1.192 3.216 3.216 0 00-1.192-.775C14.249.276 13.7.107 12.69.06 11.596.01 11.269 0 8.5 0 5.732 0 5.404.01 4.31.06 3.3.107 2.75.275 2.385.418a3.21 3.21 0 00-1.192.775c-.344.334-.61.742-.776 1.192C.275 2.751.107 3.3.06 4.31.01 5.404 0 5.732 0 8.5c0 2.769.01 3.097.06 4.19.046 1.01.215 1.56.357 1.925.167.45.432.857.776 1.192.334.344.742.61 1.192.776.366.142.915.31 1.925.357 1.094.05 1.421.06 4.19.06s3.097-.01 4.19-.06c1.01-.047 1.56-.215 1.925-.357a3.434 3.434 0 001.968-1.968zM8.5 3.175a5.324 5.324 0 100 10.65 5.324 5.324 0 000-10.65zm5.535 1.035a1.244 1.244 0 100-2.489 1.244 1.244 0 000 2.489z" fill="#000"/><path d="M5.044 8.5a3.456 3.456 0 106.912 0 3.456 3.456 0 00-6.912 0z" fill="#000"/></svg><svg viewBox="0 0 48 48" id="instagram_footer" xmlns="http://www.w3.org/2000/svg"><path fill="#304ffe" d="M41.67 13.48c-.4.26-.97.5-1.21.77-.09.09-.14.19-.12.29v1.03l-.3 1.01-.3 1-.33 1.1-.68 2.25-.66 2.22-.5 1.67c0 .26-.01.52-.03.77-.07.96-.27 1.88-.59 2.74-.19.53-.42 1.04-.7 1.52-.1.19-.22.38-.34.56-.4.63-.88 1.21-1.41 1.72-.41.41-.86.79-1.35 1.11h-.01c-.08.07-.17.13-.27.18-.31.21-.64.39-.98.55-.23.12-.46.22-.7.31-.05.03-.11.05-.16.07-.57.27-1.23.45-1.89.54-.04.01-.07.01-.11.02-.4.07-.79.13-1.19.16-.18.02-.37.03-.55.03l-.71-.04-3.42-.18c0-.01-.01 0-.01 0l-1.72-.09c-.13 0-.27 0-.4-.01-.54-.02-1.06-.08-1.58-.19h-.01c-.95-.18-1.86-.5-2.71-.93-.47-.24-.93-.51-1.36-.82-.18-.13-.35-.27-.52-.42-.48-.4-.91-.83-1.31-1.27-.06-.06-.11-.12-.16-.18-.06-.06-.12-.13-.17-.19-.38-.48-.7-.97-.96-1.49-.24-.46-.43-.95-.58-1.49-.06-.19-.11-.37-.15-.57a.076.076 0 01-.02-.05c-.1-.41-.19-.84-.24-1.27-.06-.33-.09-.66-.09-1-.02-.13-.02-.27-.02-.4l1.91-2.95 1.87-2.88.85-1.31.77-1.18.26-.41v-1.03c.02-.23.03-.47.02-.69-.01-.7-.15-1.38-.38-2.03-.22-.69-.53-1.34-.85-1.94-.38-.69-.78-1.31-1.11-1.87-.49-.82-.83-1.49-.74-1.96C14.47 6.09 15.23 6 16 6h16c4.18 0 7.78 2.6 9.27 6.26.16.39.3.8.4 1.22z"/><path fill="#4928f4" d="M42 16v.27l-1.38.8-.88.51-.97.56-1.94 1.13-1.9 1.1-1.94 1.12-.77.45c0 .48-.12.92-.34 1.32-.31.58-.83 1.06-1.49 1.47-.67.41-1.49.74-2.41.98 0 0 0-.01-.01 0-3.56.92-8.42.5-10.78-1.26-.66-.49-1.12-1.09-1.32-1.78a2.92 2.92 0 01-.09-.73v-7.19c.01-.15-.09-.3-.27-.45-.54-.43-1.81-.84-3.23-1.25-1.11-.31-2.3-.62-3.3-.92-.79-.24-1.46-.48-1.86-.71.18-.35.39-.7.61-1.03 1.4-2.05 3.54-3.56 6.02-4.13C14.47 6.09 15.23 6 16 6h10.8a33.68 33.68 0 0114.47 6.26c.16.39.3.8.4 1.22.18.66.29 1.34.32 2.05.01.15.01.31.01.47z"/><path fill="#6200ea" d="M42 16v4.41l-.22.68-.75 2.33-.78 2.4-.41 1.28-.38 1.19-.37 1.13-.36 1.12-.19.59-.25.78c0 .76-.02 1.43-.07 2-.01.06-.02.12-.02.18-.06.53-.14.98-.27 1.36-.01.06-.03.12-.05.17-.26.72-.65 1.18-1.23 1.48-.14.08-.3.14-.47.2-.53.18-1.2.27-2.02.32-.6.04-1.29.05-2.07.05h-.69l-1.19-.05-.21-.01-2.17-.09-2.2-.09-7.25-.3-1.88-.08h-.26c-.78-.01-1.45-.06-2.03-.14-.84-.13-1.49-.35-1.98-.68-.7-.45-1.11-1.11-1.35-2.03-.06-.22-.11-.45-.14-.7-.1-.58-.15-1.25-.18-2 0-.15 0-.3-.01-.46-.01-.01 0-.01 0-.01v-.58c-.01-.29-.01-.59-.01-.9l.05-1.61.03-1.15.04-1.34v-.19l.07-2.46.07-2.46.07-2.31.06-2.27.02-.6c0-.31-1.05-.49-2.22-.64-.93-.12-1.95-.23-2.56-.37.05-.23.1-.46.16-.68.18-.72.45-1.4.79-2.05.18-.35.39-.7.61-1.03 2.16-.95 4.41-1.69 6.76-2.17 2.06-.43 4.21-.66 6.43-.66 7.36 0 14.16 2.49 19.54 6.69.52.4 1.03.83 1.53 1.28.01.15.01.31.01.47z"/><path fill="#673ab7" d="M42 18.37v4.54l-.55 1.06-1.05 2.05-.56 1.08-.51.99-.22.43c0 .31 0 .61-.02.9 0 .43-.02.84-.05 1.22-.04.45-.1.86-.16 1.24-.15.79-.36 1.47-.66 2.03-.04.07-.08.14-.12.2-.11.18-.24.35-.38.51-.18.22-.38.41-.61.57-.34.26-.74.47-1.2.63-.57.21-1.23.35-2.01.43-.51.05-1.07.08-1.68.08l-.42.02-2.08.12h-.01l-2.21.13-2.25.13-3.1.18-3.77.22-.55.03c-.51 0-.99-.03-1.45-.09-.05-.01-.09-.02-.14-.02-.68-.11-1.3-.29-1.86-.54-.68-.3-1.27-.7-1.77-1.18-.44-.43-.82-.92-1.13-1.47-.07-.13-.14-.25-.2-.39-.3-.59-.54-1.25-.72-1.97-.03-.12-.06-.25-.08-.38-.06-.23-.11-.47-.14-.72-.11-.64-.17-1.32-.2-2.03v-.01c-.01-.29-.02-.57-.02-.87l-.49-1.17-.07-.18-.06-.15-.75-1.79-.12-.29-.72-1.73-.8-1.93H7.1l-.81-1.95-.29-.71V16c0-.63.06-1.25.17-1.85.05-.23.1-.46.16-.68.85-.49 1.74-.94 2.65-1.34 2.08-.93 4.31-1.62 6.62-2.04 1.72-.31 3.51-.48 5.32-.48 7.31 0 13.94 2.65 19.12 6.97.2.16.39.32.58.49.47.41.93.84 1.38 1.3z"/><path fill="#8e24aa" d="M42 21.35v5.14l-.57 1.19-1.08 2.25-.01.03c0 .43-.02.82-.05 1.17-.1 1.15-.38 1.88-.84 2.33-.33.34-.74.53-1.25.63-.03.01-.07.01-.1.02-.16.03-.33.05-.51.05-.62.06-1.35.02-2.19-.04-.09 0-.19-.01-.29-.02-.61-.04-1.26-.08-1.98-.11-.39-.01-.8-.02-1.22-.02h-.02l-1.01.08h-.01l-2.27.16-2.59.2-.38.03-3.03.22-1.57.12-1.55.11c-.27 0-.53 0-.79-.01 0 0-.01-.01-.01 0-1.13-.02-2.14-.09-3.04-.26-.83-.14-1.56-.36-2.18-.69-.64-.31-1.17-.75-1.6-1.31-.41-.55-.71-1.24-.9-2.07v-.01c-.14-.67-.22-1.45-.22-2.33l-.15-.27-.89-1.59-.13-.22-.07-.14-.93-1.65-.46-.83-.58-1.03-1-1.79-.53-.94v-3.68c.88-.58 1.79-1.09 2.73-1.55 1.14-.58 2.32-1.07 3.55-1.47 1.34-.44 2.74-.79 4.17-1.02 1.45-.24 2.94-.36 4.47-.36 6.8 0 13.04 2.43 17.85 6.47.22.17.43.36.64.54.84.75 1.64 1.56 2.37 2.41.08.09.16.17.22.26z"/><path fill="#c2185b" d="M42 24.71v7.23c-.24-.14-.57-.31-.98-.49-.22-.11-.47-.22-.73-.32-.38-.17-.79-.33-1.25-.49-.1-.04-.2-.07-.31-.1-.18-.07-.37-.13-.56-.19-.59-.18-1.24-.35-1.92-.5-.26-.05-.53-.1-.8-.14-.87-.15-1.8-.24-2.77-.25-.08-.01-.17-.01-.25-.01l-2.57.02-3.5.02h-.01l-7.49.06c-2.38 0-3.84.57-4.72.8 0 0-.01 0-.01.01-.93.24-1.22.09-1.3-1.54-.02-.45-.03-1.03-.03-1.74l-.56-.43-.98-.74-.6-.46-.12-.09-1.66-1.26-.25-.19-.52-.4-.96-.72L6 21.91v-3.4c.1-.08.19-.15.29-.21 1.45-1 3-1.85 4.64-2.54 1.46-.62 3-1.11 4.58-1.46.43-.09.87-.18 1.32-.24 1.33-.23 2.7-.34 4.09-.34 6.01 0 11.53 2.09 15.91 5.55.66.52 1.3 1.07 1.9 1.66.82.78 1.59 1.61 2.3 2.49.14.18.28.36.42.55.19.24.37.49.55.74z"/><path fill="#d81b60" d="M42 28.72V32c0 .65-.06 1.29-.18 1.91-.18.92-.49 1.8-.91 2.62-.22.05-.47.05-.75.01-.63-.11-1.37-.44-2.17-.87a.37.37 0 01-.11-.05c-.25-.13-.51-.27-.77-.43-.53-.29-1.09-.61-1.65-.91-.12-.06-.24-.12-.35-.18-.64-.33-1.3-.63-1.96-.86h-.01c-.14-.05-.29-.1-.44-.14-.57-.16-1.15-.26-1.71-.26l-1.1-.32-4.87-1.41h-.01l-2.99-.87h-.01l-1.3-.38c-3.76 0-6.07 1.6-7.19.99-.44-.23-.7-.81-.79-1.95-.03-.32-.04-.68-.04-1.1l-1.17-.57-.05-.02h-.01l-.84-.42-.92-.44-.07-.03-.17-.09-1.96-.95-1.5-.73v-3.43c.17-.15.35-.29.53-.43.19-.15.38-.29.57-.44h.01c1.18-.85 2.43-1.6 3.76-2.22 1.55-.74 3.2-1.31 4.91-1.68.25-.06.51-.12.77-.16 1.42-.27 2.88-.41 4.37-.41 5.27 0 10.11 1.71 14.01 4.59 1.13.84 2.18 1.77 3.14 2.78.79.83 1.52 1.73 2.18 2.67.05.07.1.14.15.2.37.54.71 1.09 1.03 1.66.21.34.39.69.57 1.04z"/><path fill="#f50057" d="M41.82 33.91a9.929 9.929 0 01-1.54 3.68c-.14.21-.29.41-.44.6-.36-.14-.89-.34-1.54-.56v-.01c-.49-.17-1.05-.35-1.65-.52a18.217 18.217 0 00-2.69-.61c-.6-.1-1.19-.16-1.74-.16l-.46-.13h-.01l-2.42-.7-1.49-.43-1.66-.48h-.01l-.54-.15-6.53-1.88-1.88-.54-1.4-.33-2.28-.54-.28-.07h-.01l-2.29-.53v-.01l-.41-.09-.21-.05-1.67-.39-.19-.05-1.42-1.17L6 27.9v-4.08c.37-.36.75-.7 1.15-1.03.12-.11.25-.21.38-.31.12-.1.25-.2.38-.3a20.2 20.2 0 012.89-1.84c1.3-.7 2.68-1.26 4.13-1.66.28-.09.56-.17.85-.23 1.64-.41 3.36-.62 5.14-.62a21.594 21.594 0 0116.62 7.76c.66.79 1.26 1.62 1.79 2.5.05.07.09.13.13.2.32.53.62 1.08.89 1.64.25.5.47 1 .67 1.52.32.8.58 1.62.8 2.46z"/><path fill="#ff1744" d="M40.28 37.59a9.802 9.802 0 01-1.9 2.09c-.47.39-.97.74-1.5 1.04-.2-.05-.4-.11-.61-.19-.66-.23-1.35-.61-1.99-1.01-.96-.61-1.79-1.27-2.16-1.57l-.21-.18-1.7-.15-.21-.02-2.2-.19-2.28-.2-3.37-.3-5.34-.47-.02-.01-1.88-.91-1.9-.92-1.53-.74-.33-.16-.41-.2-1.42-.69-1.89-.91-.59-.29-.84-.26v-4.47c.47-.56.97-1.09 1.5-1.6.34-.32.7-.64 1.07-.94.06-.05.12-.1.18-.14.04-.05.09-.08.13-.1.59-.48 1.21-.91 1.85-1.3.74-.47 1.52-.89 2.33-1.24.87-.39 1.78-.72 2.72-.97 1.63-.46 3.36-.7 5.14-.7 4.08 0 7.85 1.24 10.96 3.37 1.99 1.36 3.71 3.08 5.07 5.07.45.64.85 1.32 1.22 2.02.13.26.26.52.37.78.12.25.23.5.34.75.21.52.4 1.04.57 1.58a18.624 18.624 0 01.83 4.13z"/><path fill="#ff5722" d="M38.39 39.42c0 .08 0 .17-.01.26-.47.39-.97.74-1.5 1.04-.22.12-.44.24-.67.34-.23.11-.46.21-.7.3-.34-.18-.8-.4-1.29-.61-.69-.31-1.44-.59-2.02-.68-.14-.03-.27-.04-.39-.04l-1.64-.21h-.02l-2.04-.27-2.06-.27-.96-.12-7.56-.98c-.49 0-1.01-.03-1.55-.1-.66-.06-1.35-.16-2.04-.3-.68-.12-1.37-.28-2.03-.45-.69-.16-1.37-.35-2-.53a74.552 74.552 0 01-3.16-1.02c-.18-.43-.33-.88-.44-1.34A9.38 9.38 0 016 32v-1.67c.32-.53.67-1.05 1.06-1.54.71-.94 1.52-1.8 2.4-2.56.03-.04.07-.07.1-.09l.01-.01c.31-.28.63-.53.97-.77.04-.04.08-.07.12-.1.16-.12.33-.24.51-.35a17.24 17.24 0 014.7-2.24c1.6-.48 3.29-.73 5.05-.73 3.49 0 6.75 1.03 9.47 2.79 2.01 1.29 3.74 2.99 5.06 4.98.16.23.31.46.46.7.69 1.17 1.26 2.43 1.68 3.75.05.15.09.3.13.46.08.27.15.55.21.83.02.07.04.14.06.22.14.63.24 1.29.31 1.95v.01c.06.59.09 1.19.09 1.79z"/><path fill="#ff6f00" d="M36.33 39.42c0 .35-.02.73-.06 1.11l-.06.53a9.503 9.503 0 01-2.08.71c-.32.07-.65.13-.98.16h-.01c-.31-.19-.67-.42-1.04-.68-.67-.47-1.37-1-1.93-1.43l-.02-.02c-.59-.45-1.01-.79-1.01-.79l-1.06.04-2.04.07-.95.04-3.82.14-3.23.12c-.21.01-.46.01-.77 0h-.01c-.42-.01-.92-.04-1.47-.09-.64-.05-1.34-.11-2.05-.18-.69-.08-1.39-.16-2.06-.24-.74-.08-1.44-.17-2.04-.25-.47-.06-.88-.11-1.21-.15-.28-.32-.53-.65-.77-1.01a9.12 9.12 0 01-.91-1.72c-.18-.43-.33-.88-.44-1.34.29-.89.67-1.73 1.12-2.54.36-.66.78-1.29 1.24-1.89.45-.59.94-1.14 1.47-1.64v-.01c.15-.15.3-.29.45-.42.28-.26.57-.5.87-.73h.01c.01-.02.02-.02.03-.03.24-.19.49-.36.74-.53a15.15 15.15 0 014.95-2.2c1.19-.29 2.44-.45 3.73-.45 2.54 0 4.94.61 7.05 1.71h.01c1.81.93 3.41 2.21 4.7 3.75.71.82 1.32 1.72 1.82 2.67.35.64.65 1.31.9 1.99.02.06.04.11.06.16.17.5.32 1.02.45 1.54.09.37.16.75.22 1.13.02.12.04.23.05.35.1.69.15 1.4.15 2.12z"/><path fill="#ff9800" d="M34.28 39.42v.1c0 .34-.03.77-.06 1.23l-.09 1.02c-.32.07-.65.13-.98.16h-.01c-.38.05-.75.07-1.14.07h-1.75l-.38-.11-1.97-.6-2-.6-4.63-1.39-2-.6s-.83.33-2 .72h-.01c-.45.15-.94.31-1.46.47-.65.19-1.34.38-2.02.53-.7.16-1.39.28-2.01.33-.19.02-.38.03-.55.03a10.282 10.282 0 01-3.56-3.28c.07-.45.15-.89.27-1.32.3-1.19.77-2.33 1.39-3.37.34-.59.72-1.16 1.16-1.69.01-.03.04-.06.07-.08-.01-.01 0-.01 0-.01.13-.17.27-.33.41-.48v-.01c.41-.44.83-.86 1.29-1.25.16-.13.31-.26.48-.39.03-.03.06-.05.1-.08 2.25-1.72 5.06-2.76 8.09-2.76 3.44 0 6.57 1.29 8.94 3.41a13.4 13.4 0 012.84 3.63c.06.1.12.21.17.32.09.18.18.37.26.57.33.72.59 1.48.77 2.26l.06.24a13.382 13.382 0 01.32 2.93z"/><path fill="#ffc107" d="M32.22 39.42c0 .2-.01.42-.02.65-.02.37-.05.77-.1 1.18-.02.25-.06.5-.1.75h-5.48l-1.06-.17-4.14-.66-.59-.09-1.35-.22c-.59 0-1.87.26-3.22.51-.71.13-1.43.27-2.08.36l-.23.03h-.01c-.7-.15-1.38-.38-2.02-.68-.2-.09-.4-.19-.6-.3-.56-.31-1.1-.68-1.59-1.09-.01-.12-.02-.22-.02-.27 0-.26.01-.51.03-.76.04-.64.13-1.26.27-1.86.22-.91.54-1.79.97-2.6.08-.17.17-.34.27-.5.04-.08.09-.15.13-.23.18-.29.38-.57.58-.85.42-.55.89-1.07 1.39-1.54h.01c.04-.04.08-.08.12-.11.05-.04.09-.09.14-.12.2-.18.4-.34.61-.49 0-.01.01-.01.01-.01a11.28 11.28 0 016.78-2.24c1.98 0 3.82.5 5.43 1.38h.01c1.38.76 2.58 1.79 3.53 3.03.37.48.7.99.98 1.53h.01l.15.3c.3.59.54 1.21.72 1.85h.01c.01.05.03.1.04.15.12.43.22.87.29 1.32l.03.28c.07.48.1.97.1 1.47z"/><path fill="#ffd54f" d="M30.17 39.31c0 .16 0 .33-.02.49v.02c-.02.72-.12 1.43-.28 2.07 0 .04-.01.07-.03.11h-4.67l-3.85-.83-.51-.11-.08.02-4.27.88-.19.04H16c-.64 0-1.27-.06-1.88-.18l-.27-.06h-.01c-.7-.15-1.38-.38-2.02-.68-.02-.11-.04-.22-.05-.33-.07-.43-.1-.88-.1-1.33 0-.17 0-.34.01-.51.03-.54.11-1.07.23-1.58.08-.38.19-.75.32-1.1.11-.31.24-.61.38-.9.12-.25.26-.49.4-.73.14-.23.29-.45.45-.67a9.029 9.029 0 012.36-2.24 9.245 9.245 0 015.1-1.52c.37 0 .73.02 1.08.07h.02c1.07.12 2.07.42 2.99.87h.01c1.45.71 2.68 1.78 3.58 3.1.15.22.3.46.43.7.11.19.21.39.3.59.14.31.27.64.38.97h.01c.11.37.21.74.28 1.13v.01c.11.55.17 1.12.17 1.7z"/><path fill="#ffe082" d="M28.11 39.52v.03c0 .59-.07 1.17-.21 1.74-.05.24-.12.48-.21.71h-4.48l-2.29-.63-2.29.63H16c-.64 0-1.27-.06-1.88-.18-.02-.03-.03-.06-.04-.09-.14-.43-.25-.86-.3-1.31-.04-.29-.06-.59-.06-.9 0-.12 0-.25.02-.37.01-.47.08-.93.2-1.37.06-.3.15-.59.27-.87.04-.14.1-.27.17-.4.15-.34.33-.67.53-.99.22-.32.46-.62.73-.9.32-.36.68-.69 1.09-.96.7-.51 1.5-.89 2.37-1.1.58-.16 1.19-.24 1.82-.24 2 0 3.79.8 5.09 2.09.05.05.11.11.16.18h.01c.14.15.27.3.4.47.37.47.68.98.92 1.54.12.26.22.53.3.81l.03.11c.14.49.23 1 .25 1.53.02.15.03.31.03.47z"/><path fill="#ffecb3" d="M26.06 39.52c0 .41-.05.8-.16 1.17-.1.4-.25.78-.44 1.14-.03.06-.1.17-.1.17h-8.88a.076.076 0 01-.02-.04c-.12-.19-.22-.38-.3-.59-.2-.46-.32-.96-.36-1.48-.02-.12-.02-.25-.02-.37 0-.06 0-.13.01-.19.01-.44.07-.86.19-1.25.1-.36.23-.69.4-1.01 0 0 .01-.01.01-.02.12-.21.25-.42.4-.62.49-.66 1.14-1.2 1.89-1.55h.01c.24-.12.49-.22.75-.29h.01c.46-.14.96-.21 1.47-.21.59 0 1.16.09 1.68.28.19.05.37.13.55.22h.01c.86.41 1.59 1.05 2.09 1.85.1.15.19.31.27.48.04.07.08.15.11.22.23.52.37 1.09.41 1.69.01.05.01.1.01.16.01.08.01.16.01.24z"/><path fill="none" stroke="#fff" stroke-linecap="round" stroke-linejoin="round" stroke-miterlimit="10" stroke-width="2" d="M30 11H18c-3.9 0-7 3.1-7 7v12c0 3.9 3.1 7 7 7h12c3.9 0 7-3.1 7-7V18c0-3.9-3.1-7-7-7z"/><circle cx="31" cy="16" r="1" fill="#fff"/><g><circle cx="24" cy="24" r="6" fill="none" stroke="#fff" stroke-linecap="round" stroke-linejoin="round" stroke-miterlimit="10" stroke-width="2"/></g></svg><svg fill="none" viewBox="0 0 101 31" id="logo" xmlns="http://www.w3.org/2000/svg"><path d="M50.934 30.292h-3.037V17.503h5.647c1.048 0 2.184.204 3.144 1.013.982.83 1.219 1.93 1.219 2.744 0 1.599-.918 2.612-1.799 3.11a3.247 3.247 0 01-1.52.423c.148.072.3.184.62.535.32.35.9 1.028 3.575 4.968h-3.528c-.385-.514-.427-.646-.686-1.029-.195-.31-.214-.295-.705-1.068-1.196-1.895-1.628-2.485-1.97-2.796-.13-.111-.279-.239-.492-.33a1.25 1.25 0 00-.468-.112v5.331zm1.006-7.27c.834 0 1.71-.02 2.244-.422.301-.24.58-.662.58-1.288 0-.479-.13-1.252-1.072-1.563-.533-.168-1.196-.184-1.688-.184h-1.07v3.461h1.006v-.003zM62.743 26.356v.204c0 .682.278 1.268.705 1.619.491.407 1.113.498 1.646.498.426 0 1.497-.056 2.74-.937l1.113 1.472c-1.391.993-2.93 1.308-4.131 1.308-1.498 0-2.8-.459-3.7-1.253-.812-.737-1.475-1.878-1.475-3.696 0-1.787.556-2.836 1.368-3.625 1.071-1.029 2.244-1.288 3.445-1.288 1.474 0 2.504.442 3.167 1.013 1.349 1.176 1.456 3.054 1.456 4.123v.57h-6.334v-.008zm3.357-1.914c0-.498-.023-1.069-.408-1.507-.32-.351-.77-.479-1.196-.479-.515 0-.918.168-1.197.459-.45.459-.514 1.14-.514 1.599v.036H66.1v-.108zM78.318 30.292H70.25v-1.527l5.156-6.165h-4.73v-1.731h8.129v1.69l-4.836 6.018h5.026l-.677 1.715zM88.801 21.994c1.136 1.104 1.35 2.356 1.35 3.588 0 1.233-.214 2.485-1.35 3.59-1.048 1.012-2.309 1.343-3.635 1.343-1.326 0-2.587-.33-3.635-1.343-1.136-1.105-1.35-2.357-1.35-3.59 0-1.232.214-2.484 1.35-3.588 1.048-1.013 2.309-1.344 3.635-1.344 1.326 0 2.587.33 3.635 1.344zm-4.878.977c-.45.514-.58 1.38-.58 2.611 0 1.233.13 2.098.58 2.613.385.458.9.514 1.243.514.343 0 .858-.056 1.243-.514.45-.515.58-1.38.58-2.613 0-1.232-.13-2.097-.58-2.611-.385-.46-.9-.515-1.243-.515-.343-.004-.858.052-1.243.515zM98.172 30.292v-6.129c0-.55-.023-.937-.255-1.16-.19-.184-.427-.22-.621-.22-.302 0-.664.056-1.072.24a6.49 6.49 0 00-1.006.606v6.66h-2.823v-6.824c0-.534-.024-1.268-.385-2.21l2.504-.625c.194.259.384.626.408 1.176l.361-.22c.195-.11.343-.258.858-.498.213-.111 1.006-.442 2.012-.442 1.414 0 2.291.662 2.634 1.415.213.479.213.993.213 1.344v6.883h-2.828v.004zM50.567 6.74c0 .024-.01.044-.028.056a.277.277 0 01-.078.028c-.033.008-.084.008-.149.008a1.32 1.32 0 01-.148-.008.264.264 0 01-.084-.028c-.018-.012-.023-.032-.023-.056v-.279a1.584 1.584 0 01-.477.303 1.46 1.46 0 01-.557.108c-.171 0-.324-.02-.464-.056a1.093 1.093 0 01-.352-.167.759.759 0 01-.31-.626c0-.16.037-.295.11-.411a.9.9 0 01.32-.291c.14-.076.311-.136.515-.172.204-.04.432-.056.682-.056h.45v-.219a.91.91 0 00-.042-.287.479.479 0 00-.13-.207.552.552 0 00-.232-.124 1.218 1.218 0 00-.347-.044c-.149 0-.279.016-.395.044a2.77 2.77 0 00-.528.2.304.304 0 01-.13.043.105.105 0 01-.051-.012.1.1 0 01-.037-.036.18.18 0 01-.023-.063.464.464 0 01.004-.208.155.155 0 01.06-.083.744.744 0 01.168-.096 2.413 2.413 0 01.612-.176c.125-.02.245-.028.37-.028.232 0 .432.024.599.068.162.044.296.112.398.2.102.087.177.199.223.327.046.131.07.283.07.458v1.89h.004zm-.593-1.28h-.51c-.163 0-.306.012-.427.036a.936.936 0 00-.301.108.495.495 0 00-.176.167.444.444 0 00-.056.228c0 .143.056.259.162.347.107.087.26.127.45.127a.952.952 0 00.436-.103c.134-.068.273-.172.422-.315V5.46zM53.609 4.084c0 .04-.005.076-.01.108a.274.274 0 01-.023.072.088.088 0 01-.037.04.093.093 0 01-.05.012h-1.225v2.42a.072.072 0 01-.014.044c-.009.012-.023.02-.046.028a.378.378 0 01-.093.02 1.39 1.39 0 01-.292 0 .435.435 0 01-.093-.02c-.023-.008-.037-.02-.046-.028a.065.065 0 01-.014-.044V4.041c0-.064.019-.108.051-.14.032-.032.079-.044.135-.044h1.636c.019 0 .037.004.051.016.014.008.023.024.037.044.01.02.019.044.023.072.005.024.01.056.01.095zM56.929 5.213c0 .08-.024.14-.07.172a.26.26 0 01-.162.051h-2.142c0 .156.018.296.055.42a.784.784 0 00.181.318.79.79 0 00.33.204c.134.047.3.071.495.071a2.547 2.547 0 00.946-.175.456.456 0 01.13-.032c.019 0 .033.004.047.012.013.008.023.02.032.032.01.016.014.036.018.06a.588.588 0 01.005.095c0 .028 0 .052-.005.072-.004.02-.004.036-.009.052a.175.175 0 01-.018.044.23.23 0 01-.033.036.445.445 0 01-.116.056 1.963 1.963 0 01-.255.075 4.176 4.176 0 01-.361.068c-.135.02-.283.028-.436.028-.27 0-.501-.032-.705-.096-.2-.063-.37-.16-.51-.287a1.168 1.168 0 01-.31-.474 1.932 1.932 0 01-.107-.666c0-.24.037-.459.106-.65.075-.192.177-.355.311-.487.135-.135.301-.235.492-.307.194-.072.407-.108.649-.108.255 0 .472.036.653.108.181.072.33.164.446.283.115.12.199.26.255.419.055.16.083.33.083.514v.092h.005zm-.603-.151c.01-.272-.06-.483-.209-.635-.148-.151-.366-.23-.654-.23a.979.979 0 00-.389.071.81.81 0 00-.278.191.891.891 0 00-.176.276.989.989 0 00-.07.327h1.776zM60.689 6.736a.072.072 0 01-.014.044c-.01.012-.023.02-.047.028a.387.387 0 01-.088.02 1.367 1.367 0 01-.292 0 .335.335 0 01-.088-.02.132.132 0 01-.046-.028.064.064 0 01-.014-.044V5.508h-1.66v1.228a.072.072 0 01-.014.044c-.01.012-.023.02-.046.028a.377.377 0 01-.093.02 1.39 1.39 0 01-.292 0 .435.435 0 01-.093-.02c-.023-.008-.037-.02-.046-.028a.064.064 0 01-.014-.044v-2.8c0-.015.004-.031.014-.043a.132.132 0 01.046-.032.435.435 0 01.093-.02c.037-.004.088-.004.144-.004.06 0 .11 0 .148.004.037.004.07.008.093.02.023.008.037.02.046.032.01.012.014.024.014.044v1.14h1.66v-1.14c0-.016.005-.032.014-.044a.131.131 0 01.046-.032.387.387 0 01.088-.02c.037-.004.088-.004.149-.004.055 0 .106 0 .143.004.037.004.07.008.088.02.024.008.038.02.047.032.01.012.014.024.014.044v2.8zM64.073 4.088c0 .04-.004.076-.009.108a.274.274 0 01-.023.072.126.126 0 01-.037.044.11.11 0 01-.056.016h-.978V6.74a.073.073 0 01-.014.044c-.01.012-.023.02-.046.028a.379.379 0 01-.093.02 1.39 1.39 0 01-.292 0 .437.437 0 01-.093-.02c-.023-.008-.037-.02-.046-.028a.065.065 0 01-.014-.044V4.328h-.978a.077.077 0 01-.051-.016.1.1 0 01-.038-.044.278.278 0 01-.023-.072c-.004-.032-.01-.064-.01-.108 0-.035.006-.071.01-.1a.278.278 0 01.023-.071.1.1 0 01.089-.06h2.55c.018 0 .037.004.05.016a.1.1 0 01.038.044c.009.02.018.044.023.076.018.024.018.06.018.095zM66.935 6.31c0 .036 0 .064-.005.091-.005.028-.005.048-.014.064-.004.016-.014.032-.023.048a.766.766 0 01-.056.06.882.882 0 01-.153.096c-.074.04-.153.071-.245.103-.089.032-.19.056-.297.072a1.8 1.8 0 01-.33.028 1.77 1.77 0 01-.62-.1 1.186 1.186 0 01-.455-.29 1.284 1.284 0 01-.278-.471 1.946 1.946 0 01-.098-.642c0-.276.037-.515.116-.71.08-.2.186-.36.32-.487.135-.127.297-.219.482-.283a1.937 1.937 0 011.169-.004c.083.028.153.06.218.092a.658.658 0 01.2.151c.008.016.018.032.027.052.01.02.014.044.014.068.005.024.005.056.005.092 0 .08-.01.135-.033.171-.023.032-.046.048-.079.048a.21.21 0 01-.125-.052 1.333 1.333 0 00-.18-.111 1.373 1.373 0 00-.265-.112 1.094 1.094 0 00-.362-.052c-.287 0-.505.096-.658.283-.153.192-.232.467-.232.826 0 .18.019.339.06.474a.891.891 0 00.177.34.71.71 0 00.282.203c.112.043.241.067.385.067.14 0 .26-.02.362-.055.102-.036.195-.08.269-.124.074-.044.139-.084.19-.12.05-.036.093-.056.12-.056.019 0 .033.004.042.012.014.008.023.024.033.044.009.02.014.044.018.076.019.032.019.068.019.108zM70.008 4.088c0 .04-.004.076-.009.108a.282.282 0 01-.023.072c-.01.02-.023.032-.037.044-.014.012-.032.016-.056.016h-.978V6.74a.072.072 0 01-.014.044c-.01.012-.023.02-.046.028a.377.377 0 01-.093.02 1.39 1.39 0 01-.292 0 .434.434 0 01-.093-.02c-.023-.008-.037-.02-.046-.028a.064.064 0 01-.014-.044V4.328h-.978a.077.077 0 01-.051-.016.098.098 0 01-.038-.044.274.274 0 01-.023-.072.616.616 0 010-.207.274.274 0 01.023-.072.098.098 0 01.089-.06h2.55c.018 0 .037.004.05.016a.1.1 0 01.038.044c.01.02.018.044.023.076.014.024.019.06.019.095zM73.268 5.93c0 .148-.032.28-.097.396a.83.83 0 01-.288.29c-.13.077-.287.136-.477.176-.19.04-.413.06-.668.06h-.232a3.81 3.81 0 01-.218-.008l-.208-.012a3.211 3.211 0 01-.204-.016c-.098-.012-.167-.036-.214-.084-.046-.043-.07-.111-.07-.199V4.12c0-.083.024-.151.066-.195a.324.324 0 01.204-.08c.06-.008.13-.012.2-.016l.217-.012c.074-.004.153-.004.232-.008.079-.004.162-.004.24-.004.233 0 .437.016.608.048.172.032.316.084.427.148a.607.607 0 01.334.554.59.59 0 01-.149.403.819.819 0 01-.43.24c.236.043.416.127.537.25.13.136.19.292.19.483zm-.719-1.3a.402.402 0 00-.041-.183.332.332 0 00-.144-.135.897.897 0 00-.255-.084 2.104 2.104 0 00-.38-.028c-.111 0-.218.004-.31.008-.094.004-.172.012-.237.016v.87h.607c.25 0 .44-.04.57-.12.13-.08.19-.196.19-.343zm.107 1.309a.475.475 0 00-.05-.22.373.373 0 00-.163-.155.925.925 0 00-.283-.092 2.406 2.406 0 00-.408-.032h-.584v.993c.046.008.092.012.143.016.051.004.102.008.153.008.052.004.103.004.158.008.051.004.097.004.144.004.157 0 .292-.012.403-.036a.93.93 0 00.278-.103.427.427 0 00.163-.168.513.513 0 00.046-.223zM77.172 5.305c0 .227-.037.438-.106.63-.07.191-.177.359-.311.494-.14.14-.31.248-.52.327-.208.076-.45.116-.723.116-.269 0-.5-.036-.7-.104a1.225 1.225 0 01-.793-.774 1.93 1.93 0 01-.097-.633c0-.228.032-.439.102-.63.07-.192.171-.36.31-.495.14-.14.311-.247.52-.323.209-.076.45-.116.728-.116.269 0 .5.036.7.104a1.223 1.223 0 01.793.774c.065.183.097.395.097.63zm-.617.036c0-.152-.018-.295-.05-.431a1 1 0 00-.163-.355.743.743 0 00-.306-.24 1.142 1.142 0 00-.482-.087c-.176 0-.33.028-.46.08a.858.858 0 00-.314.227.988.988 0 00-.186.351 1.5 1.5 0 00-.06.443c0 .151.018.299.05.43a1 1 0 00.163.355c.074.104.181.18.306.24.13.06.288.087.482.087.177 0 .33-.028.455-.08a.776.776 0 00.315-.227.894.894 0 00.18-.347 1.4 1.4 0 00.07-.446zM50.97 12.112a.072.072 0 01-.014.044c-.009.012-.023.02-.046.028a.387.387 0 01-.088.02 1.364 1.364 0 01-.292 0 .334.334 0 01-.088-.02.206.206 0 01-.047-.028.065.065 0 01-.013-.044v-1.228h-1.66v1.228a.072.072 0 01-.014.044c-.01.012-.023.02-.047.028a.379.379 0 01-.092.02 1.386 1.386 0 01-.293 0 .436.436 0 01-.092-.02c-.023-.008-.037-.02-.047-.028a.065.065 0 01-.014-.044v-2.8c0-.015.005-.031.014-.043a.133.133 0 01.047-.032.436.436 0 01.093-.02c.037-.004.088-.004.143-.004.06 0 .112 0 .149.004a.28.28 0 01.092.02c.024.008.038.02.047.032.009.012.014.024.014.043v1.141h1.66v-1.14c0-.016.004-.032.014-.044a.133.133 0 01.046-.032.387.387 0 01.088-.02c.037-.004.088-.004.148-.004.056 0 .107 0 .144.004.037.004.07.008.088.02.023.008.037.02.047.032.009.012.013.024.013.043v2.8zM54.856 10.593c0 .08-.023.14-.07.171a.259.259 0 01-.162.052h-2.142c0 .155.019.295.056.419a.783.783 0 00.18.319c.084.087.195.16.33.203.134.048.301.072.496.072a2.542 2.542 0 00.728-.104c.088-.028.162-.052.218-.072a.453.453 0 01.13-.032c.018 0 .032.005.046.012.014.008.023.02.032.032.01.012.014.036.019.06a.59.59 0 01.004.096c0 .028 0 .052-.004.072-.005.02-.005.035-.01.051a.175.175 0 01-.018.044.22.22 0 01-.032.036.446.446 0 01-.116.056 1.964 1.964 0 01-.255.076 4.142 4.142 0 01-.362.068c-.135.02-.283.027-.436.027-.269 0-.5-.031-.705-.095a1.32 1.32 0 01-.51-.287 1.168 1.168 0 01-.31-.475 1.933 1.933 0 01-.107-.666c0-.24.037-.458.107-.65.074-.191.176-.355.31-.486.135-.136.302-.236.492-.307.194-.072.408-.108.649-.108.255 0 .473.036.654.108.18.071.329.163.445.283.116.12.2.259.255.418.055.16.083.332.083.515v.092h.005zm-.603-.152c.01-.271-.06-.482-.209-.634-.148-.152-.366-.231-.653-.231a.98.98 0 00-.39.072.812.812 0 00-.278.19.891.891 0 00-.176.276.989.989 0 00-.07.327h1.776zM55.695 13.129a.071.071 0 01-.009.036.163.163 0 01-.042.024.902.902 0 01-.399 0c-.018-.008-.037-.016-.041-.024-.01-.008-.014-.02-.014-.036V11.88c0-.052.01-.088.028-.104.018-.016.055-.024.111-.024h.232c.088-.092.171-.2.25-.319.08-.12.149-.271.214-.45.065-.184.125-.4.18-.655.056-.255.107-.558.153-.913a.416.416 0 01.019-.08c.01-.023.018-.043.037-.055a.17.17 0 01.056-.032.22.22 0 01.074-.012h1.808c.056 0 .102.016.135.044.032.032.05.075.05.14v2.34h.455c.051 0 .088.008.107.024.023.016.032.052.032.104v1.248a.07.07 0 01-.01.036.167.167 0 01-.04.024 1.006 1.006 0 01-.325.016.374.374 0 01-.08-.016c-.018-.008-.036-.016-.041-.024-.01-.008-.014-.02-.014-.036v-.941h-2.935v.933h.01zm2.25-3.473h-1.03a10.76 10.76 0 01-.158.857 5.01 5.01 0 01-.171.586 1.81 1.81 0 01-.195.39c-.07.1-.14.188-.209.268h1.767V9.656h-.005zM62.47 11.306c0 .148-.033.28-.098.395a.83.83 0 01-.288.291c-.13.076-.287.136-.477.176-.19.04-.413.06-.668.06h-.232c-.074 0-.148-.004-.218-.008l-.208-.012a3.205 3.205 0 01-.204-.016c-.098-.012-.167-.036-.213-.084-.047-.044-.07-.112-.07-.2V9.497c0-.084.023-.151.065-.195a.324.324 0 01.204-.08c.06-.008.13-.012.2-.016l.217-.012c.074-.004.153-.004.232-.008.079-.004.162-.004.241-.004.232 0 .436.016.607.048.172.032.316.084.427.147a.607.607 0 01.334.554c0 .16-.051.292-.149.404a.819.819 0 01-.43.239c.236.044.417.127.537.251.13.14.19.295.19.482zm-.72-1.3a.402.402 0 00-.041-.183.333.333 0 00-.144-.136.897.897 0 00-.255-.083 2.102 2.102 0 00-.38-.028c-.111 0-.218.004-.31.008-.093.004-.172.012-.237.016v.87h.607c.25 0 .44-.04.57-.12.13-.08.19-.192.19-.343zm.107 1.313a.473.473 0 00-.05-.22.373.373 0 00-.163-.155.93.93 0 00-.283-.092 2.41 2.41 0 00-.408-.032h-.584v.993c.046.008.093.012.144.016.05.004.102.008.153.008.05.004.102.004.157.008.051.004.098.004.144.004.158 0 .292-.012.403-.036a.928.928 0 00.279-.104.427.427 0 00.162-.167.606.606 0 00.046-.223zM66.239 12.116a.061.061 0 01-.014.04.072.072 0 01-.047.028.406.406 0 01-.088.016 1.36 1.36 0 01-.287 0 .459.459 0 01-.093-.016c-.023-.008-.042-.016-.05-.028a.062.062 0 01-.015-.04v-1.611c0-.08.005-.164.01-.247.004-.084.009-.168.018-.248a3.111 3.111 0 01-.18.244l-.2.239-1.382 1.623c-.018.016-.032.032-.046.044-.014.012-.028.024-.051.028a.32.32 0 01-.08.016c-.032.004-.069.004-.115.004a1.088 1.088 0 01-.213-.024c-.019-.008-.037-.016-.042-.028a.061.061 0 01-.014-.04V9.309a.06.06 0 01.014-.04.095.095 0 01.046-.032.288.288 0 01.093-.016c.037-.004.084-.004.14-.004a.77.77 0 01.236.024c.041.016.065.04.065.072v1.619c0 .08-.005.16-.01.239-.004.08-.009.16-.018.24.055-.08.111-.156.167-.232.055-.076.116-.152.18-.223l1.4-1.647c.015-.016.029-.032.047-.044a.142.142 0 01.056-.028.424.424 0 01.083-.016c.033-.004.074-.004.125-.004.051 0 .093 0 .13.004a.318.318 0 01.084.016c.018.008.037.02.041.032.01.012.014.028.014.044v2.803h-.004zM71.673 12.136a.042.042 0 01-.014.032.176.176 0 01-.051.024.419.419 0 01-.088.016c-.037.004-.084.004-.144.004a1.617 1.617 0 01-.264-.024.169.169 0 01-.056-.028.082.082 0 01-.028-.04l-.348-.722a1.41 1.41 0 00-.143-.24.677.677 0 00-.163-.163.676.676 0 00-.208-.091 1.154 1.154 0 00-.278-.028h-.241v1.264c0 .012-.005.02-.019.028-.014.008-.028.016-.056.024a.546.546 0 01-.092.016 1.31 1.31 0 01-.13.004c-.051 0-.098 0-.135-.004a.329.329 0 01-.148-.04c-.014-.008-.019-.02-.019-.028v-1.268h-.24c-.107 0-.2.008-.279.028a.709.709 0 00-.213.091.56.56 0 00-.167.164 1.598 1.598 0 00-.144.24l-.348.72a.082.082 0 01-.027.04.169.169 0 01-.056.029.462.462 0 01-.097.016 1.695 1.695 0 01-.163.008c-.055 0-.102 0-.139-.004a.472.472 0 01-.093-.016c-.023-.008-.037-.016-.05-.024a.042.042 0 01-.014-.032c0-.012.004-.028.009-.048.004-.02.018-.044.032-.076l.357-.706c.047-.091.098-.175.149-.247.05-.072.111-.131.167-.183.06-.052.125-.096.19-.132.07-.036.144-.064.227-.088v-.008a1.002 1.002 0 01-.172-.063.785.785 0 01-.167-.108.972.972 0 01-.162-.176 1.915 1.915 0 01-.157-.263l-.302-.618a.339.339 0 01-.028-.072c-.009-.02-.009-.04-.009-.06 0-.011.005-.02.014-.027a.166.166 0 01.042-.024.362.362 0 01.088-.016c.037-.004.083-.004.143-.004.065 0 .121 0 .163.004a.64.64 0 01.106.016c.028.008.047.02.06.032a.092.092 0 01.028.043l.288.646c.042.088.084.168.13.232a.593.593 0 00.348.243 1.1 1.1 0 00.245.028h.241V9.281c0-.012.005-.02.019-.028a.136.136 0 01.056-.02l.092-.012c.037-.004.084-.004.135-.004a1.27 1.27 0 01.222.016.17.17 0 01.056.02c.014.008.019.02.019.028v1.176h.24a.966.966 0 00.251-.028.615.615 0 00.357-.243c.046-.064.093-.14.13-.228l.306-.646c.01-.015.018-.031.032-.043a.112.112 0 01.051-.032.287.287 0 01.093-.016c.042-.004.093-.004.158-.004.055 0 .106 0 .144.004a.414.414 0 01.088.016c.018.008.037.016.041.024a.04.04 0 01.014.028c0 .02-.004.04-.01.06-.004.02-.018.043-.027.071l-.31.618a1.352 1.352 0 01-.158.26 1.144 1.144 0 01-.167.17.895.895 0 01-.325.172v.008c.084.024.158.056.227.092a1.044 1.044 0 01.357.319c.052.072.103.156.149.247l.352.706c.01.016.014.028.019.04l.014.036c.004.012.004.02.009.028-.01.008-.01.012-.01.02zM75.35 12.116a.061.061 0 01-.014.04.071.071 0 01-.046.028.407.407 0 01-.088.016 1.364 1.364 0 01-.288 0 .458.458 0 01-.093-.016c-.023-.008-.041-.016-.05-.028a.061.061 0 01-.014-.04v-1.611c0-.08.004-.164.009-.247.004-.084.01-.168.018-.248a3.137 3.137 0 01-.18.244c-.065.08-.135.16-.2.239l-1.382 1.623c-.018.016-.032.032-.046.044-.014.012-.028.024-.05.028a.32.32 0 01-.08.016c-.032.004-.07.004-.116.004a1.088 1.088 0 01-.213-.024c-.018-.008-.037-.016-.042-.028a.062.062 0 01-.014-.04V9.309c0-.016.005-.028.014-.04a.095.095 0 01.047-.032.288.288 0 01.092-.016c.037-.004.084-.004.14-.004a.77.77 0 01.236.024c.042.016.065.04.065.072v1.619c0 .08-.005.16-.01.239-.004.08-.009.16-.018.24.056-.08.111-.156.167-.232a2.85 2.85 0 01.18-.223l1.401-1.647c.014-.016.028-.032.046-.044a.142.142 0 01.056-.028.423.423 0 01.084-.016c.032-.004.074-.004.125-.004.05 0 .093 0 .13.004a.317.317 0 01.083.016c.019.008.037.02.042.032.009.012.014.028.014.044v2.803h-.005zM80.566 12.084a.09.09 0 01-.05.096.552.552 0 01-.223.028c-.06 0-.112 0-.149-.004a1.727 1.727 0 01-.092-.012c-.024-.008-.038-.016-.047-.028a.13.13 0 01-.018-.044l-.237-1.635c-.009-.06-.014-.12-.023-.188-.01-.067-.014-.135-.023-.203-.01-.068-.014-.136-.019-.203-.004-.068-.014-.132-.018-.192l-.005-.072a5.26 5.26 0 00-.07.192c-.023.068-.05.135-.078.203a3.621 3.621 0 00-.08.204c-.022.067-.05.131-.069.191l-.681 1.659c-.01.024-.023.044-.033.064a.134.134 0 01-.055.04.25.25 0 01-.088.02 1.157 1.157 0 01-.255 0 .405.405 0 01-.084-.02.134.134 0 01-.055-.04.182.182 0 01-.038-.064l-.658-1.663c-.023-.06-.051-.12-.074-.187-.023-.068-.051-.136-.074-.204l-.075-.207c-.023-.068-.046-.132-.06-.191l-.005.071c-.009.06-.013.124-.023.192-.009.067-.014.135-.023.203-.01.068-.018.136-.023.204-.01.067-.014.127-.019.187l-.222 1.607a.194.194 0 01-.019.06c-.009.016-.023.028-.05.036a.465.465 0 01-.093.016c-.037.004-.088.004-.153.004-.06 0-.107-.004-.144-.008a.255.255 0 01-.079-.02c-.019-.012-.028-.024-.032-.04a.112.112 0 010-.056l.357-2.652c.014-.068.037-.116.083-.151.042-.036.107-.052.19-.052h.288c.07 0 .13.004.18.016a.28.28 0 01.126.048.259.259 0 01.088.091c.023.04.046.088.07.144l.481 1.192.084.22c.028.071.056.147.083.219.024.072.051.14.075.211.023.068.041.136.064.196h.01c.023-.064.041-.132.065-.204.023-.072.046-.143.074-.22.028-.07.056-.147.083-.219.028-.071.056-.143.084-.207l.482-1.184a.816.816 0 01.065-.136.294.294 0 01.204-.143.7.7 0 01.171-.016h.283c.088 0 .153.016.2.048.046.031.07.08.079.147l.347 2.656zM84.493 10.684c0 .228-.037.439-.106.63-.07.192-.176.36-.31.495-.14.14-.311.247-.52.327-.209.08-.45.116-.724.116-.268 0-.5-.036-.7-.104a1.223 1.223 0 01-.793-.774 1.93 1.93 0 01-.097-.634c0-.227.033-.438.102-.63.07-.191.172-.359.31-.494.14-.14.311-.248.52-.323.209-.076.45-.116.728-.116.269 0 .5.036.7.104a1.223 1.223 0 01.793.774c.065.183.097.394.097.63zm-.62.032c0-.151-.02-.295-.052-.43a1 1 0 00-.162-.355.742.742 0 00-.306-.24 1.142 1.142 0 00-.482-.087c-.177 0-.33.028-.46.08a.858.858 0 00-.315.227.988.988 0 00-.185.35 1.5 1.5 0 00-.06.443c0 .152.018.3.05.431.033.136.089.251.163.355.074.104.18.18.306.24.13.059.287.087.482.087.176 0 .33-.028.454-.08a.782.782 0 00.316-.227.895.895 0 00.18-.347c.052-.136.07-.283.07-.447zM87.712 11.69c0 .035 0 .063-.005.091-.005.028-.005.048-.014.064a.228.228 0 01-.023.048.778.778 0 01-.056.06.88.88 0 01-.153.095c-.074.04-.153.072-.246.104-.088.032-.19.056-.296.072-.107.02-.218.027-.33.027a1.77 1.77 0 01-.62-.1 1.186 1.186 0 01-.455-.29 1.287 1.287 0 01-.278-.47 1.947 1.947 0 01-.098-.643c0-.275.037-.514.116-.71.079-.2.186-.359.32-.486.135-.128.297-.22.482-.283a1.938 1.938 0 011.169-.004c.083.028.153.06.218.091a.658.658 0 01.139.092c.028.024.05.044.06.06.01.016.019.032.028.052.01.02.014.044.014.068a.537.537 0 01.004.091c0 .08-.009.136-.032.172-.023.032-.047.048-.079.048a.21.21 0 01-.125-.052 1.335 1.335 0 00-.181-.112 1.37 1.37 0 00-.264-.112 1.094 1.094 0 00-.362-.051c-.287 0-.505.095-.658.283-.153.191-.232.466-.232.825 0 .18.018.34.06.475a.894.894 0 00.176.339.71.71 0 00.283.203c.111.044.241.068.385.068.14 0 .26-.02.362-.056.102-.036.194-.08.269-.123a2.99 2.99 0 00.19-.12c.05-.036.092-.056.12-.056.019 0 .033.004.042.012.014.008.023.024.032.044.01.02.014.044.019.076.019.027.019.063.019.107zM90.78 9.468c0 .04-.004.076-.009.108a.274.274 0 01-.023.072c-.01.02-.023.031-.037.043-.014.012-.032.016-.056.016h-.978v2.413a.072.072 0 01-.014.044c-.01.012-.023.02-.046.028a.379.379 0 01-.093.02 1.386 1.386 0 01-.292 0 .437.437 0 01-.093-.02.135.135 0 01-.046-.028.065.065 0 01-.014-.044V9.707H88.1a.077.077 0 01-.052-.016.1.1 0 01-.037-.043.278.278 0 01-.023-.072.616.616 0 010-.207.278.278 0 01.023-.072.1.1 0 01.088-.06h2.55c.02 0 .038.004.052.016a.1.1 0 01.037.044c.01.02.018.043.023.075.019.024.019.056.019.096zM94.268 12.116a.061.061 0 01-.014.04.071.071 0 01-.047.028.407.407 0 01-.088.016 1.364 1.364 0 01-.287 0 .458.458 0 01-.093-.016c-.023-.008-.042-.016-.051-.028a.061.061 0 01-.014-.04v-1.611c0-.08.005-.164.01-.247.004-.084.009-.168.018-.248a3.112 3.112 0 01-.181.244c-.065.08-.134.16-.2.239l-1.381 1.623c-.019.016-.032.032-.046.044-.014.012-.028.024-.051.028a.32.32 0 01-.08.016c-.032.004-.069.004-.115.004a1.088 1.088 0 01-.213-.024c-.019-.008-.038-.016-.042-.028a.061.061 0 01-.014-.04V9.309a.06.06 0 01.014-.04.095.095 0 01.046-.032.288.288 0 01.093-.016c.037-.004.083-.004.139-.004a.77.77 0 01.236.024c.042.016.065.04.065.072v1.619c0 .08-.004.16-.009.239-.004.08-.01.16-.018.24.055-.08.11-.156.167-.232.055-.076.115-.152.18-.223l1.4-1.647c.015-.016.028-.032.047-.044a.142.142 0 01.056-.028.423.423 0 01.083-.016c.032-.004.074-.004.125-.004.051 0 .093 0 .13.004a.317.317 0 01.084.016c.018.008.037.02.041.032.01.012.014.028.014.044v2.803h-.004zM0 3v27h16.552L0 3z" fill="#000"/><path d="M31.724 12.443c0-6.84-6.444-12.389-14.42-12.44V0H0l18.543 30h12.616L26.3 22.137c3.306-2.28 5.424-5.773 5.424-9.694z" fill="#FD8958"/></svg><svg fill="none" viewBox="0 0 25 25" id="phone" xmlns="http://www.w3.org/2000/svg"><g clip-path="url(#fclip0_78_2006)" fill="#FD773E"><path d="M22.129 18.862l-3.647-3.647a1.944 1.944 0 00-2.75 0l-1.061 1.062a17.9 17.9 0 01-5.947-5.947l1.164-1.164a1.947 1.947 0 000-2.75L6.24 2.769a1.943 1.943 0 00-2.752.003L1.198 5.08C.1 6-.284 7.513.216 8.946c2.566 7.352 8.487 13.273 15.84 15.839 1.383.483 2.803.122 3.706-.809a.92.92 0 00.038-.036l2.329-2.328a1.947 1.947 0 000-2.75zm-1.162 1.588l-2.276 2.276a.82.82 0 00-.078.075c-.48.52-1.25.7-2.017.433C9.713 20.832 4.17 15.288 1.767 8.404c-.275-.788-.077-1.604.506-2.08a.823.823 0 00.063-.058l2.317-2.335a.3.3 0 01.427 0l3.646 3.647a.302.302 0 010 .426L7.113 9.617a.821.821 0 00-.135.985 19.544 19.544 0 007.421 7.42.821.821 0 00.984-.134l1.511-1.511a.302.302 0 01.427 0l3.646 3.646a.302.302 0 010 .427zM13.13 6.413a.821.821 0 000 1.643 3.82 3.82 0 013.815 3.815.821.821 0 101.643 0 5.464 5.464 0 00-5.458-5.458z"/><path d="M13.13 3.189a.821.821 0 000 1.643 7.047 7.047 0 017.04 7.039.821.821 0 001.642 0c0-4.787-3.895-8.682-8.682-8.682z"/><path d="M21.523 3.477A11.792 11.792 0 0013.13.001a.821.821 0 000 1.643c5.639 0 10.227 4.588 10.227 10.227a.821.821 0 101.643 0c0-3.17-1.235-6.152-3.477-8.394z"/></g><defs><clipPath id="fclip0_78_2006"><path fill="#fff" d="M0 0h25v25H0z"/></clipPath></defs></svg><svg fill="none" viewBox="0 0 1123 56" id="scheme_line" xmlns="http://www.w3.org/2000/svg"><path d="M1 40.5l13.459-4.074C79.306 16.796 111.73 6.98 145.238 4.599c33.508-2.38 66.993 2.752 133.965 13.017L422.239 39.54c59.022 9.047 88.532 13.57 118.277 13.678 29.745.108 59.288-4.2 118.373-12.817l176.459-25.733c60.37-8.804 90.555-13.206 120.803-11.496 30.248 1.71 59.749 9.487 118.739 25.04L1121.5 40.5" stroke="#FD8958" stroke-width="4" stroke-dasharray="6 6"/></svg><svg fill="none" viewBox="0 0 245 63" id="services_logo" xmlns="http://www.w3.org/2000/svg"><path d="M0 6v56h35L0 6z" fill="#000"/><path d="M67 25.716C67 11.578 53.39.112 36.547.006V0H0l39.161 62h26.645L55.544 45.75C62.526 41.039 67 33.82 67 25.716z" fill="#0FB6C8"/><path d="M94.141 61.766H85V21h16.999c3.154 0 6.573.648 9.462 3.229 2.959 2.644 3.671 6.152 3.671 8.745 0 5.098-2.764 8.326-5.415 9.915-1.675.992-3.155 1.284-4.578 1.347.447.23.907.585 1.87 1.704.963 1.119 2.708 3.28 10.76 15.838h-10.62c-1.159-1.64-1.284-2.059-2.066-3.28-.586-.99-.642-.94-2.121-3.406-3.601-6.038-4.899-7.92-5.932-8.91-.39-.357-.837-.763-1.48-1.056-.641-.292-1.157-.356-1.409-.356v16.996zm3.029-23.173c2.512 0 5.15-.064 6.755-1.348.907-.762 1.744-2.11 1.744-4.106 0-1.525-.391-3.991-3.224-4.983-1.605-.533-3.6-.584-5.08-.584h-3.224v11.033h3.029v-.012zM129.688 49.22v.648c0 2.173.837 4.042 2.121 5.16 1.48 1.297 3.35 1.59 4.955 1.59 1.284 0 4.508-.179 8.248-2.988l3.349 4.69c-4.187 3.166-8.82 4.17-12.435 4.17-4.508 0-8.429-1.462-11.137-3.991-2.442-2.352-4.438-5.988-4.438-11.784 0-5.695 1.675-9.038 4.117-11.555 3.224-3.28 6.755-4.105 10.37-4.105 4.438 0 7.536 1.41 9.532 3.228 4.061 3.75 4.382 9.737 4.382 13.144v1.818h-19.064v-.026zm10.104-6.102c0-1.59-.07-3.407-1.228-4.805-.963-1.119-2.317-1.526-3.601-1.526-1.549 0-2.763.534-3.6 1.462-1.354 1.462-1.55 3.636-1.55 5.098v.114h9.979v-.343zM176.567 61.765h-24.284v-4.868l15.52-19.652h-14.236v-5.517h24.466v5.39l-14.557 19.181h15.129l-2.038 5.466zM208.122 35.312c3.419 3.521 4.061 7.513 4.061 11.44 0 3.928-.642 7.92-4.061 11.44-3.154 3.23-6.95 4.285-10.942 4.285-3.991 0-7.787-1.055-10.941-4.284-3.42-3.521-4.062-7.512-4.062-11.44s.642-7.92 4.062-11.44c3.154-3.23 6.95-4.284 10.941-4.284 3.992 0 7.788 1.055 10.942 4.283zm-14.682 3.115c-1.354 1.64-1.745 4.398-1.745 8.326 0 3.928.391 6.686 1.745 8.326 1.158 1.461 2.708 1.64 3.74 1.64 1.033 0 2.582-.179 3.741-1.64 1.353-1.64 1.744-4.398 1.744-8.326 0-3.928-.391-6.687-1.744-8.326-1.159-1.462-2.708-1.64-3.741-1.64-1.032-.013-2.582.165-3.74 1.64zM236.328 61.765V42.228c0-1.754-.07-2.987-.768-3.7-.572-.584-1.284-.698-1.87-.698-.907 0-1.996.178-3.224.762-.963.47-2.121 1.233-3.028 1.933v21.228h-8.5v-21.75c0-1.703-.07-4.042-1.158-7.042l7.536-1.995c.586.826 1.159 1.995 1.228 3.75l1.089-.7c.586-.356 1.033-.826 2.582-1.589.642-.356 3.028-1.41 6.057-1.41 4.257 0 6.894 2.11 7.927 4.512.642 1.525.642 3.165.642 4.284v21.94h-8.513v.012z" fill="#000"/></svg><svg viewBox="0 0 48 48" id="telegram_footer" xmlns="http://www.w3.org/2000/svg"><path fill="#29b6f6" d="M24 4a20 20 0 100 40 20 20 0 100-40z"/><path fill="#fff" d="M33.95 15l-3.746 19.126s-.161.874-1.245.874c-.576 0-.873-.274-.873-.274l-8.114-6.733-3.97-2.001-5.095-1.355S10 24.375 10 23.625c0-.625.933-.923.933-.923l21.316-8.468c-.001-.001.651-.235 1.126-.234.292 0 .625.125.625.5 0 .25-.05.5-.05.5z"/><path fill="#b0bec5" d="M23 30.505l-3.426 3.374s-.149.115-.348.12a.494.494 0 01-.219-.043l.964-5.965L23 30.505z"/><path fill="#cfd8dc" d="M29.897 18.196a.5.5 0 00-.701-.093L16 26s2.106 5.892 2.427 6.912c.322 1.021.58 1.045.58 1.045l.964-5.965 9.832-9.096a.499.499 0 00.094-.7z"/></svg><svg fill-rule="evenodd" clip-rule="evenodd" viewBox="0 0 48 48" id="tiktok_footer" xmlns="http://www.w3.org/2000/svg"><path fill="#212121" d="M10.904 6h26.191A4.905 4.905 0 0142 10.904v26.191A4.905 4.905 0 0137.096 42H10.904A4.905 4.905 0 016 37.096V10.904A4.905 4.905 0 0110.904 6z"/><path fill="#ec407a" d="M29.208 20.607a9.587 9.587 0 005.592 1.788v-4.011c-.395 0-.788-.041-1.174-.123v3.157a9.596 9.596 0 01-5.592-1.788v8.184a7.415 7.415 0 01-7.417 7.413 7.385 7.385 0 01-4.129-1.254 7.398 7.398 0 005.303 2.23 7.415 7.415 0 007.417-7.413v-8.183zm1.449-4.046a5.594 5.594 0 01-1.449-3.273v-.516h-1.113a5.616 5.616 0 002.562 3.789zM19.079 30.832a3.392 3.392 0 013.73-5.285v-4.1a7.552 7.552 0 00-1.174-.068v3.191a3.392 3.392 0 00-2.556 6.262z"/><path fill="#fff" d="M28.034 19.63a9.587 9.587 0 005.592 1.788v-3.157a5.62 5.62 0 01-2.969-1.701 5.613 5.613 0 01-2.561-3.788h-2.923V28.79a3.392 3.392 0 01-6.094 2.041 3.39 3.39 0 011.527-6.42c.359 0 .705.056 1.03.159v-3.19a7.414 7.414 0 00-5.146 12.594 7.385 7.385 0 004.129 1.254 7.415 7.415 0 007.417-7.413l-.002-8.185z"/><path fill="#81d4fa" d="M33.626 18.262v-.854a5.586 5.586 0 01-2.969-.848 5.605 5.605 0 002.969 1.702zm-5.531-5.49a5.484 5.484 0 01-.061-.461v-.516h-4.036v16.019a3.392 3.392 0 01-4.919 3.017 3.392 3.392 0 006.094-2.041V12.772h2.922zm-6.46 8.608v-.909a7.415 7.415 0 00-5.147 13.503 7.384 7.384 0 01-2.114-5.183 7.415 7.415 0 017.261-7.411z"/></svg><svg fill="none" viewBox="0 0 21 12" id="vk_burger" xmlns="http://www.w3.org/2000/svg"><path d="M10.275 11.95h1.255s.38-.043.572-.252c.179-.192.172-.552.172-.552s-.025-1.686.758-1.935c.77-.244 1.76 1.63 2.809 2.352.793.545 1.395.426 1.395.426l2.805-.04s1.468-.09.772-1.246c-.057-.094-.406-.854-2.086-2.416-1.759-1.635-1.523-1.37.596-4.197 1.29-1.722 1.806-2.774 1.645-3.224-.154-.428-1.103-.315-1.103-.315L16.71.569s-.234-.031-.409.073c-.169.102-.278.339-.278.339s-.5 1.333-1.167 2.466c-1.405 2.391-1.969 2.517-2.198 2.369-.535-.346-.4-1.391-.4-2.132 0-2.318.35-3.284-.684-3.534-.344-.083-.597-.138-1.475-.147C8.973-.01 8.02.007 7.48.27c-.36.176-.636.57-.467.591.209.028.681.128.932.47.324.44.313 1.431.313 1.431s.186 2.728-.435 3.067c-.427.233-1.01-.242-2.264-2.412-.642-1.11-1.128-2.34-1.128-2.34S4.337.85 4.17.728A1.307 1.307 0 003.685.53l-3 .019S.233.563.068.759c-.147.174-.012.535-.012.535s2.35 5.504 5.009 8.279c2.44 2.543 5.21 2.376 5.21 2.376z" fill="#000"/></svg><svg viewBox="0 0 256 256" id="youtube_footer" xmlns="http://www.w3.org/2000/svg"><g fill="none" stroke-miterlimit="10" font-family="none" font-weight="none" font-size="none" text-anchor="none" style="mix-blend-mode:normal"><path d="M230.4 180.8c-2.133 11.2-11.2 19.733-22.4 21.333C190.4 204.8 161.067 208 128 208c-32.533 0-61.867-3.2-80-5.867-11.2-1.6-20.267-10.133-22.4-21.333-2.133-12.267-4.267-30.4-4.267-52.8s2.134-40.533 4.267-52.8C27.733 64 36.8 55.467 48 53.867 65.6 51.2 94.933 48 128 48s61.867 3.2 80 5.867c11.2 1.6 20.267 10.133 22.4 21.333 2.133 12.267 4.8 30.4 4.8 52.8-.533 22.4-2.667 40.533-4.8 52.8z" fill="#c4451d"/><path d="M106.667 165.333V90.667l64 37.333z" fill="#fff"/></g></svg></svg>